<svg width="57" height="25" viewBox="0 0 57 25" fill="none" xmlns="http://www.w3.org/2000/svg">
<mask id="path-1-outside-1_1_1683" maskUnits="userSpaceOnUse" x="0" y="0" width="57" height="25" fill="black">
<rect fill="white" width="57" height="25"/>
<path d="M17.3507 20.16V24H2.95075V20.16H8.29475V6.784L3.71875 9.664L1.57475 6.176L8.74275 1.824H13.2228V20.16H17.3507ZM31.5143 24H25.5623L19.8343 7.008H25.3063L28.6023 20.128L32.0583 7.008H37.1783L31.5143 24ZM55.7257 20.16V24H41.3258V20.16H46.6698V6.784L42.0938 9.664L39.9498 6.176L47.1178 1.824H51.5978V20.16H55.7257Z"/>
</mask>
<path d="M17.3507 20.16H18.3507V19.16H17.3507V20.16ZM17.3507 24V25H18.3507V24H17.3507ZM2.95075 24H1.95075V25H2.95075V24ZM2.95075 20.16V19.16H1.95075V20.16H2.95075ZM8.29475 20.16V21.16H9.29475V20.16H8.29475ZM8.29475 6.784H9.29475V4.97306L7.76209 5.93767L8.29475 6.784ZM3.71875 9.664L2.86682 10.1877L3.39606 11.0487L4.25141 10.5103L3.71875 9.664ZM1.57475 6.176L1.05577 5.32121L0.196281 5.84305L0.722823 6.69966L1.57475 6.176ZM8.74275 1.824V0.823999H8.46295L8.22377 0.969212L8.74275 1.824ZM13.2228 1.824H14.2228V0.823999H13.2228V1.824ZM13.2228 20.16H12.2228V21.16H13.2228V20.16ZM17.3507 20.16H16.3507V24H17.3507H18.3507V20.16H17.3507ZM17.3507 24V23H2.95075V24V25H17.3507V24ZM2.95075 24H3.95075V20.16H2.95075H1.95075V24H2.95075ZM2.95075 20.16V21.16H8.29475V20.16V19.16H2.95075V20.16ZM8.29475 20.16H9.29475V6.784H8.29475H7.29475V20.16H8.29475ZM8.29475 6.784L7.76209 5.93767L3.18609 8.81767L3.71875 9.664L4.25141 10.5103L8.82741 7.63033L8.29475 6.784ZM3.71875 9.664L4.57068 9.14034L2.42668 5.65234L1.57475 6.176L0.722823 6.69966L2.86682 10.1877L3.71875 9.664ZM1.57475 6.176L2.09373 7.03079L9.26173 2.67879L8.74275 1.824L8.22377 0.969212L1.05577 5.32121L1.57475 6.176ZM8.74275 1.824V2.824H13.2228V1.824V0.823999H8.74275V1.824ZM13.2228 1.824H12.2228V20.16H13.2228H14.2228V1.824H13.2228ZM13.2228 20.16V21.16H17.3507V20.16V19.16H13.2228V20.16ZM31.5143 24V25H32.235L32.4629 24.3162L31.5143 24ZM25.5623 24L24.6146 24.3194L24.8441 25H25.5623V24ZM19.8343 7.008V6.008H18.4419L18.8866 7.32744L19.8343 7.008ZM25.3063 7.008L26.2761 6.76435L26.0861 6.008H25.3063V7.008ZM28.6023 20.128L27.6324 20.3716L29.5693 20.3827L28.6023 20.128ZM32.0583 7.008V6.008H31.2876L31.0912 6.75327L32.0583 7.008ZM37.1783 7.008L38.1269 7.32423L38.5657 6.008H37.1783V7.008ZM31.5143 24V23H25.5623V24V25H31.5143V24ZM25.5623 24L26.5099 23.6806L20.7819 6.68856L19.8343 7.008L18.8866 7.32744L24.6146 24.3194L25.5623 24ZM19.8343 7.008V8.008H25.3063V7.008V6.008H19.8343V7.008ZM25.3063 7.008L24.3364 7.25165L27.6324 20.3716L28.6023 20.128L29.5721 19.8844L26.2761 6.76435L25.3063 7.008ZM28.6023 20.128L29.5693 20.3827L33.0253 7.26272L32.0583 7.008L31.0912 6.75327L27.6352 19.8733L28.6023 20.128ZM32.0583 7.008V8.008H37.1783V7.008V6.008H32.0583V7.008ZM37.1783 7.008L36.2296 6.69177L30.5656 23.6838L31.5143 24L32.4629 24.3162L38.1269 7.32423L37.1783 7.008ZM55.7257 20.16H56.7257V19.16H55.7257V20.16ZM55.7257 24V25H56.7257V24H55.7257ZM41.3258 24H40.3258V25H41.3258V24ZM41.3258 20.16V19.16H40.3258V20.16H41.3258ZM46.6698 20.16V21.16H47.6698V20.16H46.6698ZM46.6698 6.784H47.6698V4.97306L46.1371 5.93767L46.6698 6.784ZM42.0938 9.664L41.2418 10.1877L41.7711 11.0487L42.6264 10.5103L42.0938 9.664ZM39.9498 6.176L39.4308 5.32121L38.5713 5.84305L39.0978 6.69966L39.9498 6.176ZM47.1178 1.824V0.823999H46.8379L46.5988 0.969212L47.1178 1.824ZM51.5978 1.824H52.5978V0.823999H51.5978V1.824ZM51.5978 20.16H50.5978V21.16H51.5978V20.16ZM55.7257 20.16H54.7257V24H55.7257H56.7257V20.16H55.7257ZM55.7257 24V23H41.3258V24V25H55.7257V24ZM41.3258 24H42.3258V20.16H41.3258H40.3258V24H41.3258ZM41.3258 20.16V21.16H46.6698V20.16V19.16H41.3258V20.16ZM46.6698 20.16H47.6698V6.784H46.6698H45.6698V20.16H46.6698ZM46.6698 6.784L46.1371 5.93767L41.5611 8.81767L42.0938 9.664L42.6264 10.5103L47.2024 7.63033L46.6698 6.784ZM42.0938 9.664L42.9457 9.14034L40.8017 5.65234L39.9498 6.176L39.0978 6.69966L41.2418 10.1877L42.0938 9.664ZM39.9498 6.176L40.4687 7.03079L47.6367 2.67879L47.1178 1.824L46.5988 0.969212L39.4308 5.32121L39.9498 6.176ZM47.1178 1.824V2.824H51.5978V1.824V0.823999H47.1178V1.824ZM51.5978 1.824H50.5978V20.16H51.5978H52.5978V1.824H51.5978ZM51.5978 20.16V21.16H55.7257V20.16V19.16H51.5978V20.16Z" 
	fill="#FDE68A" 
	mask="url(#path-1-outside-1_1_1683)"/>
</svg>

