<svg width="200" height="200" viewBox="0 0 200 200" fill="none" xmlns="http://www.w3.org/2000/svg">
<g transform="translate(1,-15)">
	<path d="M69.409 149C66.5077 149 63.8623 148.317 61.473 146.952C59.169 145.501 57.3343 143.624 55.969 141.32C54.6037 138.931 53.921 136.328 53.921 133.512V111.752C53.921 110.045 54.2623 108.339 54.945 106.632C55.6277 104.84 56.5663 103.133 57.761 101.512C56.5663 99.8907 55.6277 98.184 54.945 96.392C54.2623 94.6 53.921 92.8507 53.921 91.144V72.328C53.921 69.4267 54.6037 66.824 55.969 64.52C57.3343 62.1307 59.169 60.2533 61.473 58.888C63.8623 57.4373 66.5077 56.712 69.409 56.712H131.489C133.878 56.712 136.097 57.352 138.145 58.632C140.278 59.8267 142.113 61.448 143.649 63.496C145.27 65.4587 146.38 67.5493 146.977 69.768V91.144C146.977 94.5573 145.697 98.0133 143.137 101.512C145.697 104.84 146.977 108.253 146.977 111.752V133.512C146.977 136.328 146.252 138.931 144.801 141.32C143.436 143.624 141.558 145.501 139.169 146.952C136.865 148.317 134.305 149 131.489 149H69.409ZM69.409 138.504H131.489C132.854 138.504 134.006 138.035 134.945 137.096C135.969 136.072 136.481 134.877 136.481 133.512V111.752C136.481 110.387 135.969 109.235 134.945 108.296C134.006 107.272 132.854 106.76 131.489 106.76H69.409C68.0437 106.76 66.849 107.272 65.825 108.296C64.8863 109.235 64.417 110.387 64.417 111.752V133.512C64.417 134.877 64.8863 136.072 65.825 137.096C66.849 138.035 68.0437 138.504 69.409 138.504ZM69.409 97.672H131.489C132.854 97.672 134.006 97.2027 134.945 96.264C135.969 95.24 136.481 94.0453 136.481 92.68V72.456C136.481 71.0907 135.969 69.9387 134.945 69C134.006 67.976 132.854 67.464 131.489 67.464H69.409C68.0437 67.464 66.849 67.976 65.825 69C64.8863 69.9387 64.417 71.0907 64.417 72.456V92.68C64.417 94.0453 64.8863 95.24 65.825 96.264C66.849 97.2027 68.0437 97.672 69.409 97.672Z" fill="#FDE68A"/>
</g>
</svg>






