<svg width="96" height="32" viewBox="0 0 96 32" fill="none" xmlns="http://www.w3.org/2000/svg">
<mask id="path-1-outside-1_2_2" maskUnits="userSpaceOnUse" x="0" y="0" width="96" height="32" fill="black">
<rect fill="white" width="96" height="32"/>
<path d="M22.0713 11.32C22.0713 14.44 21.0846 16.8 19.1113 18.4C17.1646 19.9733 14.4979 20.76 11.1113 20.76H8.07125V30H1.51125V2.28H10.2313C14.0713 2.28 17.0046 3.04 19.0312 4.56C21.0579 6.05333 22.0713 8.30667 22.0713 11.32ZM15.3513 11.32C15.3513 8.41333 13.6846 6.96 10.3513 6.96H8.07125V16.04H10.6713C12.1646 16.04 13.3113 15.6533 14.1113 14.88C14.9379 14.1067 15.3513 12.92 15.3513 11.32ZM46.0956 16.12C46.0956 20.6267 45.1356 24.1867 43.2156 26.8C41.3223 29.3867 38.589 30.68 35.0156 30.68C31.4156 30.68 28.669 29.4 26.7756 26.84C24.8823 24.2533 23.9356 20.68 23.9356 16.12C23.9356 11.6133 24.8823 8.06667 26.7756 5.48C28.6956 2.86667 31.4423 1.56 35.0156 1.56C38.6156 1.56 41.3623 2.85333 43.2556 5.44C45.149 8 46.0956 11.56 46.0956 16.12ZM39.3756 16.12C39.3756 12.7067 39.029 10.2267 38.3356 8.68C37.669 7.13333 36.5623 6.36 35.0156 6.36C33.469 6.36 32.349 7.13333 31.6556 8.68C30.989 10.2267 30.6556 12.7067 30.6556 16.12C30.6556 19.5333 30.989 22.0133 31.6556 23.56C32.349 25.1067 33.469 25.88 35.0156 25.88C36.589 25.88 37.709 25.1067 38.3756 23.56C39.0423 22.0133 39.3756 19.5333 39.3756 16.12ZM53.68 7.72C53.9467 9.74667 54.1733 11.7067 54.36 13.6C54.5467 15.4667 54.64 17.4533 54.64 19.56V30H49.08V2.28H57.28L64.32 24.48C63.68 20.3733 63.36 16.5067 63.36 12.88V2.28H68.92V30H60.96L53.68 7.72ZM84.0244 30.68C80.0777 30.68 77.0644 29.44 74.9844 26.96C72.931 24.4533 71.9044 20.8267 71.9044 16.08C71.9044 13.0133 72.4644 10.3867 73.5844 8.2C74.7044 6.01333 76.2377 4.36 78.1844 3.24C80.1577 2.12 82.3577 1.56 84.7844 1.56C86.6777 1.56 88.3177 1.86667 89.7044 2.48C91.1177 3.06667 92.411 3.90667 93.5844 5L90.1444 8.56C89.2644 7.78667 88.4377 7.22667 87.6644 6.88C86.9177 6.53333 86.0644 6.36 85.1044 6.36C83.1044 6.36 81.531 7.16 80.3844 8.76C79.2377 10.3333 78.6644 12.7867 78.6644 16.12C78.6644 19.6933 79.091 22.2133 79.9444 23.68C80.7977 25.1467 82.171 25.88 84.0644 25.88C85.3177 25.88 86.4644 25.6 87.5044 25.04V18.68H84.0244L83.3844 14.12H93.7044V27.88C90.6644 29.7467 87.4377 30.68 84.0244 30.68Z"/>
</mask>
<path d="M19.1113 18.4L19.7398 19.1777L19.7411 19.1768L19.1113 18.4ZM8.07125 20.76V19.76H7.07125V20.76H8.07125ZM8.07125 30V31H9.07125V30H8.07125ZM1.51125 30H0.51125V31H1.51125V30ZM1.51125 2.28V1.28H0.51125V2.28H1.51125ZM19.0312 4.56L18.4312 5.36003L18.4381 5.36505L19.0312 4.56ZM8.07125 6.96V5.96H7.07125V6.96H8.07125ZM8.07125 16.04H7.07125V17.04H8.07125V16.04ZM14.1113 14.88L13.4281 14.1497L13.4221 14.1553L13.4162 14.161L14.1113 14.88ZM22.0713 11.32H21.0713C21.0713 14.2142 20.1675 16.2561 18.4814 17.6232L19.1113 18.4L19.7411 19.1768C22.0016 17.3439 23.0713 14.6658 23.0713 11.32H22.0713ZM19.1113 18.4L18.4827 17.6223C16.7678 19.0082 14.3497 19.76 11.1113 19.76V20.76V21.76C14.6462 21.76 17.5613 20.9384 19.7398 19.1777L19.1113 18.4ZM11.1113 20.76V19.76H8.07125V20.76V21.76H11.1113V20.76ZM8.07125 20.76H7.07125V30H8.07125H9.07125V20.76H8.07125ZM8.07125 30V29H1.51125V30V31H8.07125V30ZM1.51125 30H2.51125V2.28H1.51125H0.51125V30H1.51125ZM1.51125 2.28V3.28H10.2313V2.28V1.28H1.51125V2.28ZM10.2313 2.28V3.28C13.9605 3.28 16.6465 4.02143 18.4312 5.36L19.0312 4.56L19.6313 3.76C17.3627 2.05857 14.182 1.28 10.2313 1.28V2.28ZM19.0312 4.56L18.4381 5.36505C20.1569 6.63159 21.0713 8.55376 21.0713 11.32H22.0713H23.0713C23.0713 8.05957 21.9589 5.47507 19.6244 3.75494L19.0312 4.56ZM15.3513 11.32H16.3513C16.3513 9.67417 15.8731 8.26822 14.7585 7.2963C13.6701 6.34721 12.141 5.96 10.3513 5.96V6.96V7.96C11.8948 7.96 12.8658 8.29945 13.444 8.80369C13.9961 9.28511 14.3513 10.0592 14.3513 11.32H15.3513ZM10.3513 6.96V5.96H8.07125V6.96V7.96H10.3513V6.96ZM8.07125 6.96H7.07125V16.04H8.07125H9.07125V6.96H8.07125ZM8.07125 16.04V17.04H10.6713V16.04V15.04H8.07125V16.04ZM10.6713 16.04V17.04C12.333 17.04 13.7633 16.6072 14.8063 15.599L14.1113 14.88L13.4162 14.161C12.8592 14.6995 11.9962 15.04 10.6713 15.04V16.04ZM14.1113 14.88L14.7944 15.6103C15.8951 14.5806 16.3513 13.0798 16.3513 11.32H15.3513H14.3513C14.3513 12.7602 13.9807 13.6328 13.4281 14.1497L14.1113 14.88ZM43.2156 26.8L42.4097 26.2079L42.4087 26.2094L43.2156 26.8ZM26.7756 26.84L25.9687 27.4306L25.9716 27.4346L26.7756 26.84ZM26.7756 5.48L25.9697 4.88792L25.9687 4.88936L26.7756 5.48ZM43.2556 5.44L42.4487 6.03065L42.4516 6.03463L43.2556 5.44ZM38.3356 8.68L37.4173 9.07583L37.4202 9.08246L37.4231 9.08905L38.3356 8.68ZM31.6556 8.68L30.7431 8.27094L30.7402 8.27753L30.7373 8.28417L31.6556 8.68ZM31.6556 23.56L30.7373 23.9558L30.7402 23.9625L30.7431 23.9691L31.6556 23.56ZM38.3756 23.56L37.4573 23.1642L37.4573 23.1642L38.3756 23.56ZM46.0956 16.12H45.0956C45.0956 20.4947 44.1629 23.8217 42.4097 26.2079L43.2156 26.8L44.0215 27.3921C46.1084 24.5516 47.0956 20.7586 47.0956 16.12H46.0956ZM43.2156 26.8L42.4087 26.2094C40.7273 28.5064 38.3123 29.68 35.0156 29.68V30.68V31.68C38.8656 31.68 41.9173 30.2669 44.0226 27.3906L43.2156 26.8ZM35.0156 30.68V29.68C31.6852 29.68 29.2578 28.5145 27.5796 26.2454L26.7756 26.84L25.9716 27.4346C28.0801 30.2855 31.1461 31.68 35.0156 31.68V30.68ZM26.7756 26.84L27.5826 26.2494C25.8577 23.8929 24.9356 20.5544 24.9356 16.12H23.9356H22.9356C22.9356 20.8056 23.9069 24.6138 25.9687 27.4306L26.7756 26.84ZM23.9356 16.12H24.9356C24.9356 11.742 25.8564 8.42885 27.5826 6.07064L26.7756 5.48L25.9687 4.88936C23.9081 7.70448 22.9356 11.4847 22.9356 16.12H23.9356ZM26.7756 5.48L27.5815 6.07208C29.2919 3.74403 31.723 2.56 35.0156 2.56V1.56V0.559999C31.1616 0.559999 28.0993 1.9893 25.9697 4.88792L26.7756 5.48ZM35.0156 1.56V2.56C38.342 2.56 40.7689 3.7357 42.4487 6.03064L43.2556 5.44L44.0626 4.84936C41.9557 1.97096 38.8893 0.559999 35.0156 0.559999V1.56ZM43.2556 5.44L42.4516 6.03463C44.1732 8.36237 45.0956 11.6847 45.0956 16.12H46.0956H47.0956C47.0956 11.4353 46.1247 7.63763 44.0596 4.84537L43.2556 5.44ZM39.3756 16.12H40.3756C40.3756 12.68 40.0324 10.0206 39.2481 8.27094L38.3356 8.68L37.4231 9.08905C38.0255 10.4328 38.3756 12.7334 38.3756 16.12H39.3756ZM38.3356 8.68L39.2539 8.28417C38.8652 7.38221 38.3177 6.63688 37.5784 6.1203C36.8335 5.59975 35.963 5.36 35.0156 5.36V6.36V7.36C35.6149 7.36 36.0711 7.50691 36.4328 7.75969C36.8002 8.01645 37.1394 8.43112 37.4173 9.07583L38.3356 8.68ZM35.0156 6.36V5.36C34.068 5.36 33.1966 5.59982 32.4474 6.1171C31.7041 6.63035 31.1463 7.37145 30.7431 8.27094L31.6556 8.68L32.5681 9.08905C32.8582 8.44188 33.2071 8.02298 33.5838 7.7629C33.9546 7.50684 34.4166 7.36 35.0156 7.36V6.36ZM31.6556 8.68L30.7373 8.28417C29.9855 10.0283 29.6556 12.6817 29.6556 16.12H30.6556H31.6556C31.6556 12.7316 31.9924 10.425 32.5739 9.07583L31.6556 8.68ZM30.6556 16.12H29.6556C29.6556 19.5583 29.9855 22.2116 30.7373 23.9558L31.6556 23.56L32.5739 23.1642C31.9924 21.815 31.6556 19.5084 31.6556 16.12H30.6556ZM31.6556 23.56L30.7431 23.9691C31.1463 24.8685 31.7041 25.6097 32.4474 26.1229C33.1966 26.6402 34.068 26.88 35.0156 26.88V25.88V24.88C34.4166 24.88 33.9546 24.7332 33.5838 24.4771C33.2071 24.217 32.8582 23.7981 32.5681 23.1509L31.6556 23.56ZM35.0156 25.88V26.88C35.9727 26.88 36.8518 26.6421 37.6038 26.1229C38.3512 25.6068 38.9039 24.8607 39.2939 23.9558L38.3756 23.56L37.4573 23.1642C37.1807 23.806 36.84 24.2199 36.4674 24.4771C36.0994 24.7312 35.6319 24.88 35.0156 24.88V25.88ZM38.3756 23.56L39.2939 23.9558C40.0458 22.2116 40.3756 19.5583 40.3756 16.12H39.3756H38.3756C38.3756 19.5084 38.0388 21.815 37.4573 23.1642L38.3756 23.56ZM53.68 7.72L54.6305 7.40941L52.6885 7.85045L53.68 7.72ZM54.36 13.6L53.3648 13.6981L53.365 13.6995L54.36 13.6ZM54.64 30V31H55.64V30H54.64ZM49.08 30H48.08V31H49.08V30ZM49.08 2.28V1.28H48.08V2.28H49.08ZM57.28 2.28L58.2332 1.97772L58.012 1.28H57.28V2.28ZM64.32 24.48L63.3668 24.7823L65.3081 24.326L64.32 24.48ZM63.36 2.28V1.28H62.36V2.28H63.36ZM68.92 2.28H69.92V1.28H68.92V2.28ZM68.92 30V31H69.92V30H68.92ZM60.96 30L60.0095 30.3106L60.2347 31H60.96V30ZM53.68 7.72L52.6885 7.85045C52.9539 9.86715 53.1793 11.8163 53.3648 13.6981L54.36 13.6L55.3552 13.5019C55.1674 11.597 54.9394 9.62618 54.6715 7.58954L53.68 7.72ZM54.36 13.6L53.365 13.6995C53.548 15.5294 53.64 17.4826 53.64 19.56H54.64H55.64C55.64 17.4241 55.5454 15.404 55.355 13.5005L54.36 13.6ZM54.64 19.56H53.64V30H54.64H55.64V19.56H54.64ZM54.64 30V29H49.08V30V31H54.64V30ZM49.08 30H50.08V2.28H49.08H48.08V30H49.08ZM49.08 2.28V3.28H57.28V2.28V1.28H49.08V2.28ZM57.28 2.28L56.3268 2.58228L63.3668 24.7823L64.32 24.48L65.2732 24.1777L58.2332 1.97772L57.28 2.28ZM64.32 24.48L65.3081 24.326C64.6749 20.2631 64.36 16.4483 64.36 12.88H63.36H62.36C62.36 16.565 62.6851 20.4836 63.3319 24.634L64.32 24.48ZM63.36 12.88H64.36V2.28H63.36H62.36V12.88H63.36ZM63.36 2.28V3.28H68.92V2.28V1.28H63.36V2.28ZM68.92 2.28H67.92V30H68.92H69.92V2.28H68.92ZM68.92 30V29H60.96V30V31H68.92V30ZM60.96 30L61.9105 29.6894L54.6305 7.40941L53.68 7.72L52.7295 8.03059L60.0095 30.3106L60.96 30ZM74.9844 26.96L74.2107 27.5937L74.2182 27.6026L74.9844 26.96ZM73.5844 8.2L74.4744 8.65588L74.4744 8.65588L73.5844 8.2ZM78.1844 3.24L77.6908 2.3703L77.6857 2.37322L78.1844 3.24ZM89.7044 2.48L89.2999 3.39453L89.3104 3.39918L89.321 3.40359L89.7044 2.48ZM93.5844 5L94.3035 5.69488L95.0111 4.9626L94.2661 4.26839L93.5844 5ZM90.1444 8.56L89.4843 9.31116L90.2007 9.94078L90.8635 9.25488L90.1444 8.56ZM87.6644 6.88L87.2432 7.78709L87.2553 7.79251L87.6644 6.88ZM80.3844 8.76L81.1925 9.349L81.1972 9.34252L80.3844 8.76ZM79.9444 23.68L79.08 24.1829L79.08 24.1829L79.9444 23.68ZM87.5044 25.04L87.9785 25.9205L88.5044 25.6373V25.04H87.5044ZM87.5044 18.68H88.5044V17.68H87.5044V18.68ZM84.0244 18.68L83.0341 18.819L83.1549 19.68H84.0244V18.68ZM83.3844 14.12V13.12H82.2342L82.3941 14.259L83.3844 14.12ZM93.7044 14.12H94.7044V13.12H93.7044V14.12ZM93.7044 27.88L94.2276 28.7322L94.7044 28.4394V27.88H93.7044ZM84.0244 30.68V29.68C80.3023 29.68 77.5992 28.5215 75.7506 26.3174L74.9844 26.96L74.2182 27.6026C76.5296 30.3585 79.8531 31.68 84.0244 31.68V30.68ZM74.9844 26.96L75.758 26.3263C73.9057 24.0651 72.9044 20.6998 72.9044 16.08H71.9044H70.9044C70.9044 20.9535 71.9564 24.8416 74.2108 27.5937L74.9844 26.96ZM71.9044 16.08H72.9044C72.9044 13.1333 73.4424 10.6707 74.4744 8.65588L73.5844 8.2L72.6943 7.74412C71.4863 10.1026 70.9044 12.8933 70.9044 16.08H71.9044ZM73.5844 8.2L74.4744 8.65588C75.515 6.6243 76.9194 5.12147 78.6831 4.10678L78.1844 3.24L77.6857 2.37322C75.556 3.59852 73.8938 5.40237 72.6943 7.74412L73.5844 8.2ZM78.1844 3.24L78.678 4.10968C80.4904 3.08103 82.5183 2.56 84.7844 2.56V1.56V0.559999C82.1971 0.559999 79.825 1.15897 77.6908 2.37031L78.1844 3.24ZM84.7844 1.56V2.56C86.572 2.56 88.0681 2.84972 89.2999 3.39453L89.7044 2.48L90.1089 1.56546C88.5673 0.883611 86.7834 0.559999 84.7844 0.559999V1.56ZM89.7044 2.48L89.321 3.40359C90.619 3.94239 91.8123 4.71559 92.9026 5.73161L93.5844 5L94.2661 4.26839C93.0098 3.09774 91.6164 2.19095 90.0878 1.55641L89.7044 2.48ZM93.5844 5L92.8653 4.30512L89.4253 7.86512L90.1444 8.56L90.8635 9.25488L94.3035 5.69488L93.5844 5ZM90.1444 8.56L90.8045 7.80883C89.8758 6.99275 88.9655 6.36736 88.0734 5.96749L87.6644 6.88L87.2553 7.79251C87.91 8.08597 88.6529 8.58059 89.4843 9.31116L90.1444 8.56ZM87.6644 6.88L88.0855 5.97299C87.1867 5.5557 86.1858 5.36 85.1044 5.36V6.36V7.36C85.9429 7.36 86.6487 7.51096 87.2433 7.78701L87.6644 6.88ZM85.1044 6.36V5.36C82.7881 5.36 80.9096 6.31048 79.5716 8.17748L80.3844 8.76L81.1972 9.34252C82.1525 8.00952 83.4206 7.36 85.1044 7.36V6.36ZM80.3844 8.76L79.5762 8.17101C78.2437 9.99934 77.6644 12.7101 77.6644 16.12H78.6644H79.6644C79.6644 12.8632 80.2317 10.6673 81.1925 9.34899L80.3844 8.76ZM78.6644 16.12H77.6644C77.6644 19.7145 78.0832 22.4697 79.08 24.1829L79.9444 23.68L80.8087 23.1771C80.0988 21.957 79.6644 19.6721 79.6644 16.12H78.6644ZM79.9444 23.68L79.08 24.1829C80.1361 25.998 81.8647 26.88 84.0644 26.88V25.88V24.88C82.4774 24.88 81.4593 24.2953 80.8087 23.1771L79.9444 23.68ZM84.0644 25.88V26.88C85.4728 26.88 86.7839 26.5637 87.9785 25.9205L87.5044 25.04L87.0303 24.1595C86.1449 24.6363 85.1626 24.88 84.0644 24.88V25.88ZM87.5044 25.04H88.5044V18.68H87.5044H86.5044V25.04H87.5044ZM87.5044 18.68V17.68H84.0244V18.68V19.68H87.5044V18.68ZM84.0244 18.68L85.0147 18.541L84.3747 13.981L83.3844 14.12L82.3941 14.259L83.0341 18.819L84.0244 18.68ZM83.3844 14.12V15.12H93.7044V14.12V13.12H83.3844V14.12ZM93.7044 14.12H92.7044V27.88H93.7044H94.7044V14.12H93.7044ZM93.7044 27.88L93.1811 27.0278C90.2911 28.8024 87.2444 29.68 84.0244 29.68V30.68V31.68C87.631 31.68 91.0377 30.6909 94.2276 28.7322L93.7044 27.88Z" fill="#fde68a" mask="url(#path-1-outside-1_2_2)"/>
</svg>
