<svg width="165" height="43" viewBox="0 0 165 43" fill="none" xmlns="http://www.w3.org/2000/svg">
<g filter="url(#filter0_d_7_22)">
<mask id="path-1-outside-1_7_22" maskUnits="userSpaceOnUse" x="0" y="0" width="165" height="39" fill="black">
<rect fill="white" width="165" height="39"/>
<path d="M2 37V2H32V7H37V22H32V27H12V37H2ZM12 22H27V7H12V22ZM49 37V32H44V7H49V2H74V7H79V32H74V37H49ZM54 32H69V7H54V32ZM86 37V2H96V7H101V12H106V17H111V2H121V37H111V27H106V22H101V17H96V37H86ZM138 37V32H133V27H128V12H133V7H138V2H163V7H143V12H138V27H143V32H153V22H148V17H163V37H138Z"/>
</mask>
<path d="M2 37H0V39H2V37ZM2 2V0H0V2H2ZM32 2H34V0H32V2ZM32 7H30V9H32V7ZM37 7H39V5H37V7ZM37 22V24H39V22H37ZM32 22V20H30V22H32ZM32 27V29H34V27H32ZM12 27V25H10V27H12ZM12 37V39H14V37H12ZM12 22H10V24H12V22ZM27 22V24H29V22H27ZM27 7H29V5H27V7ZM12 7V5H10V7H12ZM2 37H4V2H2H0V37H2ZM2 2V4H32V2V0H2V2ZM32 2H30V7H32H34V2H32ZM32 7V9H37V7V5H32V7ZM37 7H35V22H37H39V7H37ZM37 22V20H32V22V24H37V22ZM32 22H30V27H32H34V22H32ZM32 27V25H12V27V29H32V27ZM12 27H10V37H12H14V27H12ZM12 37V35H2V37V39H12V37ZM12 22V24H27V22V20H12V22ZM27 22H29V7H27H25V22H27ZM27 7V5H12V7V9H27V7ZM12 7H10V22H12H14V7H12ZM49 37H47V39H49V37ZM49 32H51V30H49V32ZM44 32H42V34H44V32ZM44 7V5H42V7H44ZM49 7V9H51V7H49ZM49 2V0H47V2H49ZM74 2H76V0H74V2ZM74 7H72V9H74V7ZM79 7H81V5H79V7ZM79 32V34H81V32H79ZM74 32V30H72V32H74ZM74 37V39H76V37H74ZM54 32H52V34H54V32ZM69 32V34H71V32H69ZM69 7H71V5H69V7ZM54 7V5H52V7H54ZM49 37H51V32H49H47V37H49ZM49 32V30H44V32V34H49V32ZM44 32H46V7H44H42V32H44ZM44 7V9H49V7V5H44V7ZM49 7H51V2H49H47V7H49ZM49 2V4H74V2V0H49V2ZM74 2H72V7H74H76V2H74ZM74 7V9H79V7V5H74V7ZM79 7H77V32H79H81V7H79ZM79 32V30H74V32V34H79V32ZM74 32H72V37H74H76V32H74ZM74 37V35H49V37V39H74V37ZM54 32V34H69V32V30H54V32ZM69 32H71V7H69H67V32H69ZM69 7V5H54V7V9H69V7ZM54 7H52V32H54H56V7H54ZM86 37H84V39H86V37ZM86 2V0H84V2H86ZM96 2H98V0H96V2ZM96 7H94V9H96V7ZM101 7H103V5H101V7ZM101 12H99V14H101V12ZM106 12H108V10H106V12ZM106 17H104V19H106V17ZM111 17V19H113V17H111ZM111 2V0H109V2H111ZM121 2H123V0H121V2ZM121 37V39H123V37H121ZM111 37H109V39H111V37ZM111 27H113V25H111V27ZM106 27H104V29H106V27ZM106 22H108V20H106V22ZM101 22H99V24H101V22ZM101 17H103V15H101V17ZM96 17V15H94V17H96ZM96 37V39H98V37H96ZM86 37H88V2H86H84V37H86ZM86 2V4H96V2V0H86V2ZM96 2H94V7H96H98V2H96ZM96 7V9H101V7V5H96V7ZM101 7H99V12H101H103V7H101ZM101 12V14H106V12V10H101V12ZM106 12H104V17H106H108V12H106ZM106 17V19H111V17V15H106V17ZM111 17H113V2H111H109V17H111ZM111 2V4H121V2V0H111V2ZM121 2H119V37H121H123V2H121ZM121 37V35H111V37V39H121V37ZM111 37H113V27H111H109V37H111ZM111 27V25H106V27V29H111V27ZM106 27H108V22H106H104V27H106ZM106 22V20H101V22V24H106V22ZM101 22H103V17H101H99V22H101ZM101 17V15H96V17V19H101V17ZM96 17H94V37H96H98V17H96ZM96 37V35H86V37V39H96V37ZM138 37H136V39H138V37ZM138 32H140V30H138V32ZM133 32H131V34H133V32ZM133 27H135V25H133V27ZM128 27H126V29H128V27ZM128 12V10H126V12H128ZM133 12V14H135V12H133ZM133 7V5H131V7H133ZM138 7V9H140V7H138ZM138 2V0H136V2H138ZM163 2H165V0H163V2ZM163 7V9H165V7H163ZM143 7V5H141V7H143ZM143 12V14H145V12H143ZM138 12V10H136V12H138ZM138 27H136V29H138V27ZM143 27H145V25H143V27ZM143 32H141V34H143V32ZM153 32V34H155V32H153ZM153 22H155V20H153V22ZM148 22H146V24H148V22ZM148 17V15H146V17H148ZM163 17H165V15H163V17ZM163 37V39H165V37H163ZM138 37H140V32H138H136V37H138ZM138 32V30H133V32V34H138V32ZM133 32H135V27H133H131V32H133ZM133 27V25H128V27V29H133V27ZM128 27H130V12H128H126V27H128ZM128 12V14H133V12V10H128V12ZM133 12H135V7H133H131V12H133ZM133 7V9H138V7V5H133V7ZM138 7H140V2H138H136V7H138ZM138 2V4H163V2V0H138V2ZM163 2H161V7H163H165V2H163ZM163 7V5H143V7V9H163V7ZM143 7H141V12H143H145V7H143ZM143 12V10H138V12V14H143V12ZM138 12H136V27H138H140V12H138ZM138 27V29H143V27V25H138V27ZM143 27H141V32H143H145V27H143ZM143 32V34H153V32V30H143V32ZM153 32H155V22H153H151V32H153ZM153 22V20H148V22V24H153V22ZM148 22H150V17H148H146V22H148ZM148 17V19H163V17V15H148V17ZM163 17H161V37H163H165V17H163ZM163 37V35H138V37V39H163V37Z" fill="#A78BFA" mask="url(#path-1-outside-1_7_22)"/>
</g>
<defs>
<filter id="filter0_d_7_22" x="0" y="0" width="165" height="43" filterUnits="userSpaceOnUse" color-interpolation-filters="sRGB">
<feFlood flood-opacity="0" result="BackgroundImageFix"/>
<feColorMatrix in="SourceAlpha" type="matrix" values="0 0 0 0 0 0 0 0 0 0 0 0 0 0 0 0 0 0 127 0" result="hardAlpha"/>
<feOffset dy="4"/>
<feComposite in2="hardAlpha" operator="out"/>
<feColorMatrix type="matrix" values="0 0 0 0 0 0 0 0 0 0 0 0 0 0 0 0 0 0 0.25 0"/>
<feBlend mode="normal" in2="BackgroundImageFix" result="effect1_dropShadow_7_22"/>
<feBlend mode="normal" in="SourceGraphic" in2="effect1_dropShadow_7_22" result="shape"/>
</filter>
</defs>
</svg>
