<svg width="138" height="37" viewBox="0 0 138 37" fill="none" xmlns="http://www.w3.org/2000/svg">
<g filter="url(#filter0_d_2_2)">
<mask id="path-1-outside-1_2_2" maskUnits="userSpaceOnUse" x="0" y="0" width="138" height="33" fill="black">
<rect fill="white" width="138" height="33"/>
<path d="M2.615 31V2.24H25.815C26.8283 2.24 27.7617 2.49333 28.615 3C29.4683 3.50666 30.1483 4.18666 30.655 5.04C31.1617 5.86667 31.415 6.78667 31.415 7.8V15.56C31.415 16.5733 31.1617 17.5067 30.655 18.36C30.1483 19.2133 29.4683 19.8933 28.615 20.4C27.7617 20.88 26.8283 21.12 25.815 21.12L7.895 21.16V31H2.615ZM8.375 15.8H25.575C25.7083 15.8 25.8283 15.76 25.935 15.68C26.0417 15.6 26.095 15.4933 26.095 15.36V8C26.095 7.86666 26.0417 7.76 25.935 7.68C25.8283 7.57333 25.7083 7.52 25.575 7.52H8.375C8.24167 7.52 8.12167 7.57333 8.015 7.68C7.935 7.76 7.895 7.86666 7.895 8V15.36C7.895 15.4933 7.935 15.6 8.015 15.68C8.12167 15.76 8.24167 15.8 8.375 15.8ZM41.7356 31C40.7223 31 39.789 30.7467 38.9356 30.24C38.109 29.7333 37.4423 29.0667 36.9356 28.24C36.429 27.3867 36.1756 26.4533 36.1756 25.44V7.76C36.1756 6.74667 36.429 5.82667 36.9356 5C37.4423 4.14667 38.109 3.46667 38.9356 2.96C39.789 2.45333 40.7223 2.2 41.7356 2.2H59.4156C60.429 2.2 61.349 2.45333 62.1756 2.96C63.029 3.46667 63.709 4.14667 64.2156 5C64.7223 5.82667 64.9756 6.74667 64.9756 7.76V25.44C64.9756 26.4533 64.7223 27.3867 64.2156 28.24C63.709 29.0667 63.029 29.7333 62.1756 30.24C61.349 30.7467 60.429 31 59.4156 31H41.7356ZM41.9356 25.68H59.1356C59.269 25.68 59.389 25.64 59.4956 25.56C59.6023 25.4533 59.6556 25.3333 59.6556 25.2V8C59.6556 7.86666 59.6023 7.76 59.4956 7.68C59.389 7.57333 59.269 7.52 59.1356 7.52H41.9356C41.8023 7.52 41.6823 7.57333 41.5756 7.68C41.4956 7.76 41.4556 7.86666 41.4556 8V25.2C41.4556 25.3333 41.4956 25.4533 41.5756 25.56C41.6823 25.64 41.8023 25.68 41.9356 25.68ZM71.3806 31V2.2H77.1806L94.8606 23.24V2.2H100.181V31H94.3806L76.6606 9.92V31H71.3806ZM112.222 31C111.209 31 110.275 30.7467 109.422 30.24C108.595 29.7333 107.929 29.0667 107.422 28.24C106.915 27.3867 106.662 26.4533 106.662 25.44V7.76C106.662 6.74667 106.915 5.82667 107.422 5C107.929 4.14667 108.595 3.46667 109.422 2.96C110.275 2.45333 111.209 2.2 112.222 2.2H129.862C130.875 2.2 131.809 2.45333 132.662 2.96C133.515 3.46667 134.195 4.14667 134.702 5C135.209 5.82667 135.462 6.74667 135.462 7.76V10H130.142V8C130.142 7.86666 130.089 7.76 129.982 7.68C129.875 7.57333 129.755 7.52 129.622 7.52H112.422C112.289 7.52 112.169 7.57333 112.062 7.68C111.982 7.76 111.942 7.86666 111.942 8V25.2C111.942 25.3333 111.982 25.4533 112.062 25.56C112.169 25.64 112.289 25.68 112.422 25.68H129.622C129.755 25.68 129.875 25.64 129.982 25.56C130.089 25.4533 130.142 25.3333 130.142 25.2V20H123.622V14.68H135.462V25.44C135.462 26.4533 135.209 27.3867 134.702 28.24C134.195 29.0667 133.515 29.7333 132.662 30.24C131.809 30.7467 130.875 31 129.862 31H112.222Z"/>
</mask>
<path d="M2.615 31H0.615V33H2.615V31ZM2.615 2.24V0.239998H0.615V2.24H2.615ZM30.655 5.04L28.9353 6.06108L28.9425 6.07315L28.9498 6.08512L30.655 5.04ZM28.615 20.4L29.5955 22.1432L29.6159 22.1317L29.6361 22.1197L28.615 20.4ZM25.815 21.12L25.815 19.12L25.8105 19.12L25.815 21.12ZM7.895 21.16L7.89054 19.16L5.895 19.1645V21.16H7.895ZM7.895 31V33H9.895V31H7.895ZM25.935 15.68L27.135 17.28L27.135 17.28L25.935 15.68ZM25.935 7.68L24.5208 9.09421L24.6213 9.19472L24.735 9.28L25.935 7.68ZM8.015 7.68L9.4292 9.09422L9.42922 9.09421L8.015 7.68ZM8.015 15.68L6.60079 17.0942L6.70129 17.1947L6.815 17.28L8.015 15.68ZM2.615 31H4.615V2.24H2.615H0.615V31H2.615ZM2.615 2.24V4.24H25.815V2.24V0.239998H2.615V2.24ZM25.815 2.24V4.24C26.4769 4.24 27.0564 4.40053 27.5939 4.71971L28.615 3L29.6361 1.28029C28.467 0.586135 27.1797 0.239998 25.815 0.239998V2.24ZM28.615 3L27.5939 4.71971C28.1596 5.05559 28.5994 5.49538 28.9353 6.06108L30.655 5.04L32.3747 4.01892C31.6973 2.87795 30.7771 1.95774 29.6361 1.28029L28.615 3ZM30.655 5.04L28.9498 6.08512C29.2548 6.58273 29.415 7.13813 29.415 7.8H31.415H33.415C33.415 6.4352 33.0686 5.1506 32.3602 3.99487L30.655 5.04ZM31.415 7.8H29.415V15.56H31.415H33.415V7.8H31.415ZM31.415 15.56H29.415C29.415 16.2219 29.2545 16.8014 28.9353 17.3389L30.655 18.36L32.3747 19.3811C33.0689 18.212 33.415 16.9247 33.415 15.56H31.415ZM30.655 18.36L28.9353 17.3389C28.5994 17.9046 28.1596 18.3444 27.5939 18.6803L28.615 20.4L29.6361 22.1197C30.7771 21.4423 31.6973 20.522 32.3747 19.3811L30.655 18.36ZM28.615 20.4L27.6345 18.6568C27.0912 18.9624 26.4974 19.12 25.815 19.12V21.12V23.12C27.1593 23.12 28.4321 22.7976 29.5955 22.1432L28.615 20.4ZM25.815 21.12L25.8105 19.12L7.89054 19.16L7.895 21.16L7.89946 23.16L25.8195 23.12L25.815 21.12ZM7.895 21.16H5.895V31H7.895H9.895V21.16H7.895ZM7.895 31V29H2.615V31V33H7.895V31ZM8.375 15.8V17.8H25.575V15.8V13.8H8.375V15.8ZM25.575 15.8V17.8C26.1411 17.8 26.6821 17.6196 27.135 17.28L25.935 15.68L24.735 14.08C24.9745 13.9004 25.2756 13.8 25.575 13.8V15.8ZM25.935 15.68L27.135 17.28C27.7453 16.8223 28.095 16.1228 28.095 15.36H26.095H24.095C24.095 15.1532 24.1383 14.9013 24.2661 14.6456C24.394 14.3899 24.5696 14.2041 24.735 14.08L25.935 15.68ZM26.095 15.36H28.095V8H26.095H24.095V15.36H26.095ZM26.095 8H28.095C28.095 7.23716 27.7453 6.53771 27.135 6.08L25.935 7.68L24.735 9.28C24.5696 9.15593 24.394 8.97014 24.2661 8.71442C24.1383 8.4587 24.095 8.20677 24.095 8H26.095ZM25.935 7.68L27.3492 6.26579C26.9212 5.83774 26.3102 5.52 25.575 5.52V7.52V9.52C25.3663 9.52 25.1525 9.47639 24.9527 9.38762C24.7577 9.30093 24.6155 9.18895 24.5208 9.09421L25.935 7.68ZM25.575 7.52V5.52H8.375V7.52V9.52H25.575V7.52ZM8.375 7.52V5.52C7.63983 5.52 7.02883 5.83774 6.60078 6.26579L8.015 7.68L9.42922 9.09421C9.33447 9.18895 9.19235 9.30093 8.99728 9.38762C8.79755 9.47639 8.58375 9.52 8.375 9.52V7.52ZM8.015 7.68L6.6008 6.26578C6.07932 6.78725 5.895 7.43815 5.895 8H7.895H9.895C9.895 8.13306 9.87488 8.31632 9.79766 8.52225C9.71813 8.73433 9.59253 8.9309 9.4292 9.09422L8.015 7.68ZM7.895 8H5.895V15.36H7.895H9.895V8H7.895ZM7.895 15.36H5.895C5.895 15.9218 6.07931 16.5727 6.60079 17.0942L8.015 15.68L9.42921 14.2658C9.59253 14.4291 9.71813 14.6257 9.79766 14.8378C9.87488 15.0437 9.895 15.2269 9.895 15.36H7.895ZM8.015 15.68L6.815 17.28C7.26786 17.6196 7.80893 17.8 8.375 17.8V15.8V13.8C8.67441 13.8 8.97547 13.9004 9.215 14.08L8.015 15.68ZM38.9356 30.24L37.8905 31.9452L37.9025 31.9525L37.9145 31.9597L38.9356 30.24ZM36.9356 28.24L35.2159 29.2611L35.2231 29.2732L35.2304 29.2851L36.9356 28.24ZM36.9356 5L38.6408 6.04512L38.6482 6.03315L38.6553 6.02108L36.9356 5ZM38.9356 2.96L37.9145 1.24029L37.9025 1.24746L37.8905 1.2548L38.9356 2.96ZM62.1756 2.96L61.1305 4.6652L61.1425 4.67254L61.1546 4.67971L62.1756 2.96ZM64.2156 5L62.4959 6.02108L62.5031 6.03315L62.5104 6.04512L64.2156 5ZM64.2156 28.24L65.9208 29.2851L65.9282 29.2732L65.9353 29.2611L64.2156 28.24ZM62.1756 30.24L61.1545 28.5203L61.1425 28.5275L61.1305 28.5348L62.1756 30.24ZM59.4956 25.56L60.6956 27.16L60.8093 27.0747L60.9098 26.9742L59.4956 25.56ZM59.4956 7.68L58.0814 9.09421L58.1819 9.19472L58.2956 9.28001L59.4956 7.68ZM41.5756 7.68L42.9898 9.09422L42.9898 9.09421L41.5756 7.68ZM41.5756 25.56L39.9756 26.76L40.1471 26.9886L40.3756 27.16L41.5756 25.56ZM41.7356 31V29C41.0737 29 40.4943 28.8395 39.9567 28.5203L38.9356 30.24L37.9145 31.9597C39.0836 32.6539 40.3709 33 41.7356 33V31ZM38.9356 30.24L39.9807 28.5348C39.4231 28.193 38.9826 27.7525 38.6408 27.1949L36.9356 28.24L35.2304 29.2851C35.902 30.3808 36.7948 31.2737 37.8905 31.9452L38.9356 30.24ZM36.9356 28.24L38.6553 27.2189C38.3362 26.6814 38.1756 26.1019 38.1756 25.44H36.1756H34.1756C34.1756 26.8047 34.5218 28.092 35.2159 29.2611L36.9356 28.24ZM36.1756 25.44H38.1756V7.76H36.1756H34.1756V25.44H36.1756ZM36.1756 7.76H38.1756C38.1756 7.09813 38.3358 6.54273 38.6408 6.04512L36.9356 5L35.2304 3.95487C34.5221 5.1106 34.1756 6.3952 34.1756 7.76H36.1756ZM36.9356 5L38.6553 6.02108C39.0001 5.44037 39.4379 4.99792 39.9807 4.6652L38.9356 2.96L37.8905 1.2548C36.78 1.93541 35.8845 2.85296 35.2159 3.97892L36.9356 5ZM38.9356 2.96L39.9567 4.67971C40.4943 4.36053 41.0737 4.2 41.7356 4.2V2.2V0.199999C40.3709 0.199999 39.0836 0.546135 37.9145 1.24029L38.9356 2.96ZM41.7356 2.2V4.2H59.4156V2.2V0.199999H41.7356V2.2ZM59.4156 2.2V4.2C60.0775 4.2 60.6329 4.36022 61.1305 4.6652L62.1756 2.96L63.2208 1.2548C62.065 0.546447 60.7804 0.199999 59.4156 0.199999V2.2ZM62.1756 2.96L61.1546 4.67971C61.7202 5.01559 62.16 5.45538 62.4959 6.02108L64.2156 5L65.9353 3.97892C65.2579 2.83795 64.3377 1.91774 63.1967 1.24029L62.1756 2.96ZM64.2156 5L62.5104 6.04512C62.8154 6.54273 62.9756 7.09813 62.9756 7.76H64.9756H66.9756C66.9756 6.3952 66.6292 5.1106 65.9208 3.95488L64.2156 5ZM64.9756 7.76H62.9756V25.44H64.9756H66.9756V7.76H64.9756ZM64.9756 25.44H62.9756C62.9756 26.1019 62.8151 26.6814 62.4959 27.2189L64.2156 28.24L65.9353 29.2611C66.6295 28.092 66.9756 26.8047 66.9756 25.44H64.9756ZM64.2156 28.24L62.5104 27.1949C62.1777 27.7377 61.7353 28.1755 61.1545 28.5203L62.1756 30.24L63.1967 31.9597C64.3227 31.2912 65.2402 30.3956 65.9208 29.2851L64.2156 28.24ZM62.1756 30.24L61.1305 28.5348C60.6329 28.8398 60.0775 29 59.4156 29V31V33C60.7804 33 62.065 32.6536 63.2208 31.9452L62.1756 30.24ZM59.4156 31V29H41.7356V31V33H59.4156V31ZM41.9356 25.68V27.68H59.1356V25.68V23.68H41.9356V25.68ZM59.1356 25.68V27.68C59.7017 27.68 60.2428 27.4996 60.6956 27.16L59.4956 25.56L58.2956 23.96C58.5352 23.7804 58.8362 23.68 59.1356 23.68V25.68ZM59.4956 25.56L60.9098 26.9742C61.3379 26.5462 61.6556 25.9352 61.6556 25.2H59.6556H57.6556C57.6556 24.9913 57.6992 24.7775 57.788 24.5777C57.8747 24.3827 57.9867 24.2405 58.0814 24.1458L59.4956 25.56ZM59.6556 25.2H61.6556V8H59.6556H57.6556V25.2H59.6556ZM59.6556 8H61.6556C61.6556 7.23715 61.3059 6.5377 60.6956 6.07999L59.4956 7.68L58.2956 9.28001C58.1302 9.15594 57.9546 8.97015 57.8268 8.71443C57.6989 8.45871 57.6556 8.20678 57.6556 8H59.6556ZM59.4956 7.68L60.9098 6.26579C60.4818 5.83774 59.8708 5.52 59.1356 5.52V7.52V9.52C58.9269 9.52 58.7131 9.47639 58.5133 9.38762C58.3183 9.30093 58.1762 9.18895 58.0814 9.09421L59.4956 7.68ZM59.1356 7.52V5.52H41.9356V7.52V9.52H59.1356V7.52ZM41.9356 7.52V5.52C41.2005 5.52 40.5895 5.83774 40.1614 6.26579L41.5756 7.68L42.9898 9.09421C42.8951 9.18895 42.753 9.30093 42.5579 9.38762C42.3582 9.47639 42.1444 9.52 41.9356 9.52V7.52ZM41.5756 7.68L40.1614 6.26578C39.6399 6.78725 39.4556 7.43815 39.4556 8H41.4556H43.4556C43.4556 8.13306 43.4355 8.31632 43.3583 8.52225C43.2788 8.73433 43.1532 8.9309 42.9898 9.09422L41.5756 7.68ZM41.4556 8H39.4556V25.2H41.4556H43.4556V8H41.4556ZM41.4556 25.2H39.4556C39.4556 25.7661 39.636 26.3071 39.9756 26.76L41.5756 25.56L43.1756 24.36C43.3553 24.5995 43.4556 24.9006 43.4556 25.2H41.4556ZM41.5756 25.56L40.3756 27.16C40.8285 27.4996 41.3696 27.68 41.9356 27.68V25.68V23.68C42.235 23.68 42.5361 23.7804 42.7756 23.96L41.5756 25.56ZM71.3806 31H69.3806V33H71.3806V31ZM71.3806 2.2V0.199999H69.3806V2.2H71.3806ZM77.1806 2.2L78.7118 0.913342L78.1124 0.199999H77.1806V2.2ZM94.8606 23.24L93.3294 24.5267L96.8606 28.7289V23.24H94.8606ZM94.8606 2.2V0.199999H92.8606V2.2H94.8606ZM100.181 2.2H102.181V0.199999H100.181V2.2ZM100.181 31V33H102.181V31H100.181ZM94.3806 31L92.8497 32.2869L93.4491 33H94.3806V31ZM76.6606 9.92L78.1916 8.63307L74.6606 4.43259V9.92H76.6606ZM76.6606 31V33H78.6606V31H76.6606ZM71.3806 31H73.3806V2.2H71.3806H69.3806V31H71.3806ZM71.3806 2.2V4.2H77.1806V2.2V0.199999H71.3806V2.2ZM77.1806 2.2L75.6494 3.48666L93.3294 24.5267L94.8606 23.24L96.3918 21.9533L78.7118 0.913342L77.1806 2.2ZM94.8606 23.24H96.8606V2.2H94.8606H92.8606V23.24H94.8606ZM94.8606 2.2V4.2H100.181V2.2V0.199999H94.8606V2.2ZM100.181 2.2H98.1806V31H100.181H102.181V2.2H100.181ZM100.181 31V29H94.3806V31V33H100.181V31ZM94.3806 31L95.9116 29.7131L78.1916 8.63307L76.6606 9.92L75.1297 11.2069L92.8497 32.2869L94.3806 31ZM76.6606 9.92H74.6606V31H76.6606H78.6606V9.92H76.6606ZM76.6606 31V29H71.3806V31V33H76.6606V31ZM109.422 30.24L108.377 31.9452L108.389 31.9525L108.401 31.9597L109.422 30.24ZM107.422 28.24L105.702 29.2611L105.709 29.2732L105.717 29.2851L107.422 28.24ZM107.422 5L109.127 6.04512L109.134 6.03315L109.142 6.02108L107.422 5ZM109.422 2.96L108.401 1.24029L108.389 1.24746L108.377 1.2548L109.422 2.96ZM134.702 5L132.982 6.02108L132.989 6.03315L132.997 6.04512L134.702 5ZM135.462 10V12H137.462V10H135.462ZM130.142 10H128.142V12H130.142V10ZM129.982 7.68L128.568 9.09421L128.668 9.19472L128.782 9.28L129.982 7.68ZM112.062 7.68L113.476 9.09422L113.476 9.09421L112.062 7.68ZM112.062 25.56L110.462 26.76L110.633 26.9886L110.862 27.16L112.062 25.56ZM129.982 25.56L131.182 27.16L131.296 27.0747L131.396 26.9742L129.982 25.56ZM130.142 20H132.142V18H130.142V20ZM123.622 20H121.622V22H123.622V20ZM123.622 14.68V12.68H121.622V14.68H123.622ZM135.462 14.68H137.462V12.68H135.462V14.68ZM134.702 28.24L136.407 29.2851L136.414 29.2732L136.422 29.2611L134.702 28.24ZM132.662 30.24L131.641 28.5203L132.662 30.24ZM112.222 31V29C111.56 29 110.981 28.8395 110.443 28.5203L109.422 30.24L108.401 31.9597C109.57 32.6539 110.857 33 112.222 33V31ZM109.422 30.24L110.467 28.5348C109.909 28.193 109.469 27.7525 109.127 27.1949L107.422 28.24L105.717 29.2851C106.388 30.3808 107.281 31.2737 108.377 31.9452L109.422 30.24ZM107.422 28.24L109.142 27.2189C108.822 26.6814 108.662 26.1019 108.662 25.44H106.662H104.662C104.662 26.8047 105.008 28.092 105.702 29.2611L107.422 28.24ZM106.662 25.44H108.662V7.76H106.662H104.662V25.44H106.662ZM106.662 7.76H108.662C108.662 7.09813 108.822 6.54273 109.127 6.04512L107.422 5L105.717 3.95487C105.008 5.1106 104.662 6.3952 104.662 7.76H106.662ZM107.422 5L109.142 6.02108C109.486 5.44037 109.924 4.99792 110.467 4.6652L109.422 2.96L108.377 1.2548C107.266 1.93541 106.371 2.85296 105.702 3.97892L107.422 5ZM109.422 2.96L110.443 4.67971C110.981 4.36053 111.56 4.2 112.222 4.2V2.2V0.199999C110.857 0.199999 109.57 0.546135 108.401 1.24029L109.422 2.96ZM112.222 2.2V4.2H129.862V2.2V0.199999H112.222V2.2ZM129.862 2.2V4.2C130.524 4.2 131.103 4.36053 131.641 4.67971L132.662 2.96L133.683 1.24029C132.514 0.546135 131.227 0.199999 129.862 0.199999V2.2ZM132.662 2.96L131.641 4.67971C132.206 5.01559 132.646 5.45538 132.982 6.02108L134.702 5L136.422 3.97892C135.744 2.83795 134.824 1.91774 133.683 1.24029L132.662 2.96ZM134.702 5L132.997 6.04512C133.302 6.54273 133.462 7.09813 133.462 7.76H135.462H137.462C137.462 6.3952 137.115 5.1106 136.407 3.95488L134.702 5ZM135.462 7.76H133.462V10H135.462H137.462V7.76H135.462ZM135.462 10V8H130.142V10V12H135.462V10ZM130.142 10H132.142V8H130.142H128.142V10H130.142ZM130.142 8H132.142C132.142 7.23716 131.792 6.53771 131.182 6.08L129.982 7.68L128.782 9.28C128.616 9.15593 128.441 8.97014 128.313 8.71442C128.185 8.4587 128.142 8.20677 128.142 8H130.142ZM129.982 7.68L131.396 6.26579C130.968 5.83774 130.357 5.52 129.622 5.52V7.52V9.52C129.413 9.52 129.199 9.47639 129 9.38762C128.805 9.30093 128.662 9.18895 128.568 9.09421L129.982 7.68ZM129.622 7.52V5.52H112.422V7.52V9.52H129.622V7.52ZM112.422 7.52V5.52C111.687 5.52 111.076 5.83774 110.648 6.26579L112.062 7.68L113.476 9.09421C113.381 9.18895 113.239 9.30093 113.044 9.38762C112.844 9.47639 112.631 9.52 112.422 9.52V7.52ZM112.062 7.68L110.648 6.26578C110.126 6.78725 109.942 7.43815 109.942 8H111.942H113.942C113.942 8.13306 113.922 8.31632 113.845 8.52225C113.765 8.73433 113.639 8.9309 113.476 9.09422L112.062 7.68ZM111.942 8H109.942V25.2H111.942H113.942V8H111.942ZM111.942 25.2H109.942C109.942 25.7661 110.122 26.3071 110.462 26.76L112.062 25.56L113.662 24.36C113.842 24.5995 113.942 24.9006 113.942 25.2H111.942ZM112.062 25.56L110.862 27.16C111.315 27.4996 111.856 27.68 112.422 27.68V25.68V23.68C112.721 23.68 113.022 23.7804 113.262 23.96L112.062 25.56ZM112.422 25.68V27.68H129.622V25.68V23.68H112.422V25.68ZM129.622 25.68V27.68C130.188 27.68 130.729 27.4996 131.182 27.16L129.982 25.56L128.782 23.96C129.021 23.7804 129.322 23.68 129.622 23.68V25.68ZM129.982 25.56L131.396 26.9742C131.824 26.5462 132.142 25.9352 132.142 25.2H130.142H128.142C128.142 24.9913 128.185 24.7775 128.274 24.5777C128.361 24.3827 128.473 24.2405 128.568 24.1458L129.982 25.56ZM130.142 25.2H132.142V20H130.142H128.142V25.2H130.142ZM130.142 20V18H123.622V20V22H130.142V20ZM123.622 20H125.622V14.68H123.622H121.622V20H123.622ZM123.622 14.68V16.68H135.462V14.68V12.68H123.622V14.68ZM135.462 14.68H133.462V25.44H135.462H137.462V14.68H135.462ZM135.462 25.44H133.462C133.462 26.1019 133.301 26.6814 132.982 27.2189L134.702 28.24L136.422 29.2611C137.116 28.092 137.462 26.8047 137.462 25.44H135.462ZM134.702 28.24L132.997 27.1949C132.664 27.7377 132.222 28.1755 131.641 28.5203L132.662 30.24L133.683 31.9597C134.809 31.2912 135.726 30.3956 136.407 29.2851L134.702 28.24ZM132.662 30.24L131.641 28.5203C131.103 28.8395 130.524 29 129.862 29V31V33C131.227 33 132.514 32.6539 133.683 31.9597L132.662 30.24ZM129.862 31V29H112.222V31V33H129.862V31Z" fill="#FDE68A" mask="url(#path-1-outside-1_2_2)"/>
</g>
<defs>
<filter id="filter0_d_2_2" x="0.61499" y="0.199951" width="136.847" height="36.8" filterUnits="userSpaceOnUse" color-interpolation-filters="sRGB">
<feFlood flood-opacity="0" result="BackgroundImageFix"/>
<feColorMatrix in="SourceAlpha" type="matrix" values="0 0 0 0 0 0 0 0 0 0 0 0 0 0 0 0 0 0 127 0" result="hardAlpha"/>
<feOffset dy="4"/>
<feComposite in2="hardAlpha" operator="out"/>
<feColorMatrix type="matrix" values="0 0 0 0 0 0 0 0 0 0 0 0 0 0 0 0 0 0 0.25 0"/>
<feBlend mode="normal" in2="BackgroundImageFix" result="effect1_dropShadow_2_2"/>
<feBlend mode="normal" in="SourceGraphic" in2="effect1_dropShadow_2_2" result="shape"/>
</filter>
</defs>
</svg>
