

<svg width="200" height="200" viewBox="0 0 200 200" fill="none" xmlns="http://www.w3.org/2000/svg">
<g transform="scale(0.9) translate(20,10)">
	<path d="M71.9165 114.227C88.8193 131.13 115.645 131.709 131.833 115.521C148.02 99.3336 147.441 72.5083 130.538 55.6054C113.635 38.7025 86.8096 38.1229 70.6218 54.3107C54.4339 70.4986 55.0136 97.3239 71.9165 114.227Z" stroke="#FDE68A" stroke-width="3"/>
	<path d="M75.5888 117.9L68.2435 110.554C66.8912 109.202 64.7452 109.156 63.4502 110.451L38.8292 135.072C37.5342 136.367 37.5805 138.513 38.9328 139.865L46.2781 147.21C47.6303 148.563 49.7763 148.609 51.0713 147.314L75.6923 122.693C76.9874 121.398 76.941 119.252 75.5888 117.9Z" stroke="#FDE68A" stroke-width="3"/>
</g>
</svg>






