

<svg width="300" height="300" viewBox="0 0 300 300" fill="none" xmlns="http://www.w3.org/2000/svg">
<path d="M123.563 175.744C139.238 191.419 164.114 191.956 179.126 176.945C194.137 161.933 193.6 137.057 177.925 121.382C162.25 105.707 137.374 105.169 122.362 120.181C107.351 135.193 107.888 160.069 123.563 175.744Z" stroke="#FDE68A" stroke-width="4"/>
<path d="M126.969 179.15L120.157 172.338C118.903 171.084 116.913 171.041 115.712 172.242L92.8799 195.074C91.679 196.275 91.722 198.265 92.976 199.519L99.7876 206.331C101.042 207.585 103.032 207.628 104.233 206.427L127.065 183.595C128.266 182.394 128.223 180.404 126.969 179.15Z" stroke="#FDE68A" stroke-width="4"/>
</svg>


